<svg xmlns="http://www.w3.org/2000/svg" viewBox="0 0 495 120" width="495px" height="120px">
  <rect stroke="#000000" stroke-opacity="0" fill="#172F45" rx="4.5" x="0.5" y="0.5" width="494" height="119"/>
  <g transform="translate(24, 36)">
    <svg x="0" y="-18" width="20" height="20" viewBox="0 0 24 24" fill="none" stroke="#6E93B5" stroke-width="1.8" stroke-linecap="round" stroke-linejoin="round">
      <path d="M15 22v-4a4.8 4.8 0 0 0-1-3.5c3 0 6-2 6-5.5.08-1.25-.27-2.48-1-3.5.28-1.15.28-2.35 0-3.5 0 0-1 0-3 1.5-2.64-.5-5.36-.5-8 0C6 2 5 2 5 2c-.3 1.15-.3 2.35 0 3.5A5.403 5.403 0 0 0 4 9c0 3.5 3 5.5 6 5.5-.39.49-.68 1.05-.85 1.65-.17.6-.22 1.23-.15 1.85v4"/>
      <path d="M9 18c-4.51 2-5-2-7-2"/>
    </svg>
    <text x="28" y="0" font-family='"Segoe UI", Ubuntu, sans-serif' font-size="14" font-weight="400" fill="#6E93B5">acheronx0577 /</text>
    <text x="148" y="0" font-family='"Segoe UI", Ubuntu, sans-serif' font-size="16" font-weight="700" fill="#BDDFFF">ReadME</text>
  </g>
  <text x="24" y="74" font-family='"Segoe UI", Ubuntu, sans-serif' font-size="14" font-weight="400" fill="#BDDFFF">Custom SVG icons, badges, and README templates</text>
  <text x="24" y="96" font-family='"Segoe UI", Ubuntu, sans-serif' font-size="14" font-weight="400" fill="#BDDFFF">for GitHub profiles.</text>
</svg>
